{"title":"Powder 1995 720p.Web-DL.x264.SSloco","uid":11984874,"size":780612390,"categoryP":"video","categoryS":"hd___movies","magnet":"?xt=urn:btih:84681ed67e92621d8c9977a59de48bf19e81249b&amp;dn=Powder+1995+720p.Web-DL.x264.SSloco&amp;tr=udp%3A%2F%2Ftracker.openbittorrent.com%3A80&amp;tr=udp%3A%2F%2Fopen.demonii.com%3A1337&amp;tr=udp%3A%2F%2Ftracker.coppersurfer.tk%3A6969&amp;tr=udp%3A%2F%2Fexodus.desync.com%3A6969","seeders":0,"leechers":0,"uploader":"myhoes14","files":1,"time":1433325639,"description":"Source:Powder.1995.1080p.WEB-DL.H264.ACC.2.0.BADASSMEDIA\n\nMedia Info\n\n\nFormat : MPEG-4\nFormat profile : Base Media\nCodec ID : isom\nFile size : 744 MiB\nDuration : 1h 51mn\nOverall bit rate mode : Variable\nOverall bit rate : 932 Kbps\nEncoded date : UTC 2015-03-22 19:55:52\nTagged date : UTC 2015-03-22 19:55:52\n\nVideo\nID : 1\nFormat : AVC\nFormat/Info : Advanced Video Codec\nFormat profile : &lt;a class=&quot;__cf_email__&quot; href=&quot;/cdn-cgi/l/email-protection&quot; data-cfemail=&quot;b4fcddd3dcf4f8809a85&quot;&gt;[email&amp;#160;protected]&lt;/a&gt;&lt;script data-cfhash='f9e31' type=&quot;text/javascript&quot;&gt;\n/* &lt;![CDATA[ */!function(){try{var t=&quot;currentScript&quot;in document?document.currentScript:function(){for(var t=document.getElementsByTagName(&quot;script&quot;),e=t.length;e--;)if(t[e].getAttribute(&quot;data-cfhash&quot;))return t[e]}();if(t&amp;&amp;t.previousSibling){var e,r,n,i,c=t.previousSibling,a=c.getAttribute(&quot;data-cfemail&quot;);if(a){for(e=&quot;&quot;,r=parseInt(a.substr(0,2),16),n=2;a.length-n;n+=2)i=parseInt(a.substr(n,2),16)^r,e+=String.fromCharCode(i);e=document.createTextNode(e),c.parentNode.replaceChild(e,c)}t.parentNode.removeChild(t);}}catch(u){}}()/* ]]&gt; */&lt;/script&gt;\nFormat settings, CABAC : Yes\nFormat settings, ReFrames : 9 frames\nCodec ID : avc1\nCodec ID/Info : Advanced Video Coding\nDuration : 1h 51mn\nBit rate : 800 Kbps\nMaximum bit rate : 8 675 Kbps\nWidth : 1 280 pixels\nHeight : 688 pixels\nDisplay aspect ratio : 1.85:1\nFrame rate mode : Constant\nFrame rate : 23.976 fps\nColor space : YUV\nChroma subsampling : 4:2:0\nBit depth : 8 bits\nScan type : Progressive\nBits/(Pixel*Frame) : 0.038\nStream size : 639 MiB (86%)\nWriting library : x264 core 142 r2431 ac76440\nEncoding settings : cabac=1 / ref=9 / deblock=1:-1:-1 / analyse=0x3:0x133 / me=umh / subme=9 / psy=1 / psy_rd=1.00:0.15 / mixed_ref=1 / me_range=24 / chroma_me=1 / trellis=2 / 8x8dct=1 / cqm=0 / deadzone=21,11 / fast_pskip=1 / chroma_qp_offset=-3 / threads=6 / lookahead_threads=1 / sliced_threads=0 / nr=0 / decimate=1 / interlaced=0 / bluray_compat=0 / constrained_intra=0 / bframes=9 / b_pyramid=2 / b_adapt=2 / b_bias=0 / direct=3 / weightb=1 / open_gop=0 / weightp=2 / keyint=240 / keyint_min=23 / scenecut=40 / intra_refresh=0 / rc_lookahead=60 / rc=2pass / mbtree=1 / bitrate=800 / ratetol=1.0 / qcomp=0.60 / qpmin=0 / qpmax=69 / qpstep=4 / cplxblur=20.0 / qblur=0.5 / vbv_maxrate=62500 / vbv_bufsize=78125 / nal_hrd=none / filler=0 / ip_ratio=1.40 / aq=1:1.00\nEncoded date : UTC 2015-03-22 19:55:52\nTagged date : UTC 2015-03-22 19:56:29\nColor primaries : BT.709\nMatrix coefficients : BT.709\nColor range : Limited\n\nAudio\nID : 2\nFormat : AAC\nFormat/Info : Advanced Audio Codec\nFormat profile : LC\nCodec ID : 40\nDuration : 1h 51mn\nBit rate mode : Variable\nBit rate : 128 Kbps\nMaximum bit rate : 216 Kbps\nChannel(s) : 2 channels\nChannel positions : Front: L R\nSampling rate : 48.0 KHz\nCompression mode : Lossy\nStream size : 102 MiB (14%)\nLanguage : English\nEncoded date : UTC 2015-03-22 19:56:15\nTagged date : UTC 2015-03-22 19:56:29\n\nMenu\n00:00:00.000 : Program Start\n00:00:56.000 : Opening Credits\n00:02:11.000 : Bad News\n00:12:54.000 : Vast Knowledge\n00:23:21.000 : Magnetic Force\n00:37:38.000 : Science Class\n00:44:33.000 : State Board of Education\n00:55:54.000 : Hunting Isn't a Sport\n00:59:14.000 : The Power Of Anger\n01:04:19.000 : A Friend\n01:10:06.000 : Changed Man\n01:13:36.000 : Emma\n01:21:42.000 : Meeting Of Minds\n01:31:48.000 : Bullies\n01:45:12.000 : The Right Thing\n01:47:16.000 : End Credits","torrent":{"xt":"urn:btih:84681ed67e92621d8c9977a59de48bf19e81249b","amp;dn":"Powder+1995+720p.Web-DL.x264.SSloco","amp;tr":["udp%3A%2F%2Ftracker.openbittorrent.com%3A80","udp%3A%2F%2Fopen.demonii.com%3A1337","udp%3A%2F%2Ftracker.coppersurfer.tk%3A6969","udp%3A%2F%2Fexodus.desync.com%3A6969"],"infoHash":"84681ed67e92621d8c9977a59de48bf19e81249b","infoHashBuffer":{"type":"Buffer","data":[132,104,30,214,126,146,98,29,140,153,119,165,157,228,139,241,158,129,36,155]},"announce":[],"urlList":[]}}